<svg xmlns="http://www.w3.org/2000/svg" version="1.1" viewBox="0 0 1600 1600">
    <path transform="translate(746,237)"
        d="m0 0h2l8 39 12 49 11 41 13 41 11 31 11 34 2 12 1 10 1 34 1 162v40l-1 30-1 10 3-3 10-31 8-26 10-40 2-9 3-1 4 15 6 25 10 34 14 43 17 48 13 36 5 16 3 17 1 9 1 75v30l5-1 17-1 7-1 1-1 1-7 1-123 1-55 4-24 6-25 11-44 4-20 5-39 5-47 5-37 4-23 2-4 2 2 11 53 12 50 7 26 15 49 12 34 12 29 13 31 14 36 6 19 4 19 1 10v130l4-5 13-30 11-30 10-31 7-27 5-22 6-38 2-4 16-4 19-5 27-9 18-8 10-5h2l-1 21-5 46-6 40-9 45-9 35-12 39-11 31-13 32-14 29-11 21-15 24-14 20-9 12-11 14-10 11-7 8-9 10-13 13-8 7-15 13-17 13-18 12-17 10-19 10-27 11-28 9-36 8-30 5-27 3-28 2h-38l-35-3-29-5-24-6-29-9-21-8-26-12-23-12-22-14-14-10-13-10-14-12-12-11-8-7-14-15-9-11-12-14-14-19-8-12-13-21-14-25-8-15-14-31-15-36-10-27-15-47-10-38-7-33-5-30-5-48-1-18 5 1 11 9 10 8 12 11 15 15 7 6 7 8 13 14 7 8 11 12 22 22 7 8 9 10 13 19 9 12 8 10 1 3h3v-157l4-26 4-19 7-30 12-50 2-4 2 2 11 35 14 40 19 49 8 19 11 25 1 5h3l-1-2v-164l3-20 7-25 8-25 9-32 8-32 9-43 11-66 2-10 1-10h3l13 37 8 21 6 17 2 1 1-14 6-40 13-65 9-42 9-45 10-57 6-30z"
        fill="#49B45C" />
    <path transform="translate(1006,556)"
        d="m0 0 2 2 11 53 12 50 7 26 15 49 12 34 12 29 13 31 14 36 6 19 4 19 1 10v130l4-5 13-30 11-30 10-31 7-27 5-22 6-38 2-4 16-4 19-5 27-9 18-8 10-5h2l-1 21-5 46-6 40-9 45-9 35-12 39-11 31-13 32-14 29-11 21-15 24-14 20-9 12-11 14-10 11-7 8-9 10-13 13-8 7-15 13-17 13-18 12-17 10-19 10-27 11-15 5h-5l-3-4v-2l-13 1-4 1h-10l-33-4-21-4-27-9-20-8-5-3-10-4-16-9-17-12-9-8-9-5v-2l-4-1v-2l-6-2-9-7-14-12v-2l5 1 2 1v2l5 2 10 7 9 5-1-3h2v-5h2l1-7h2v-8l1-12 2-92 1-175 1-56 1-15h2l-1-5h2l3 12 1 7 1 3 1 21 3 15 2 14 1 1v12l1 5 2 16 1 7-1 9 2 1v10l1 1v7l1 2 1 15 2 18 3 10 2 17 3 9 2 7v6l2 2 1 9 2 5 2 1 2 9 2 5 2 10 2 9 1 1 4 34 1 3 1-99 1-95 1-179 1-10 2 4 2 6 2 2 3 1 5-3 9 1 11 2 1-3 9 2 1-3 8 1 4-3 4-4 3-2h3v-3l4-1v-2l6-1-1-10h2l1-2h2l7 18 13 37 4 15 3 21 1 75v30l5-1 17-1 7-1 1-1 1-7 1-123 1-55 4-24 6-25 11-44 4-20 5-39 5-47 5-37 4-23z"
        fill="#10A67A" />
    <path transform="translate(746,237)"
        d="m0 0h2l8 39 12 49 11 41 13 41 11 31 11 34 2 12 1 10 1 34 1 162v40l-1 30-1 10 3-3 10-31 8-26 10-40 2-9 3-1 4 15 6 25 10 34 14 43 12 34-2 1-1 3-2-1 1 3v7l-6 1v2l-4 1v3l-5 2-5 6-4 2-8-1-1 2 2 1-11-2-1 2-18-1-2-1-6 3v-2l-3 1-3-4-1-5-1 6-1 179-1 113-1 83-2-2-2-12-1-12-1-6v-7l-2-1-3-12-2-11-2-7-2-3-2-4-1-5-1-6-2-1v-8l-3-7-3-14-2-16-2-7-2-17-1-14-1-3v-6l-1-2v-9l-1-1v-10l-2-13-1-13-1-1v-12l-2-5-2-13-2-12-1-21-4-20v-2h-2l1 5h-2l-1 71-1 109-1 2-1 16-3 2-4-7-9-3-4 3-9 4-11-1-5 1-5-5h-4l-4-1-1-3-1 4-1 23-1 8h-1l-1-331-1-93-2-50-1-3h-11l-7-2-5-3-7-1-2 9-1 15v37l-3 21-6 12-4 2-12 2-9 1-5-2h-3l-3 7-3 10h-2l-1 65h-1v-104l3-20 7-25 8-25 9-32 8-32 9-43 11-66 2-10 1-10h3l13 37 8 21 6 17 2 1 1-14 6-40 13-65 9-42 9-45 10-57 6-30z"
        fill="#49B55C" />
    <path transform="translate(334,821)"
        d="m0 0 5 1 11 9 10 8 12 11 15 15 7 6 7 8 13 14 7 8 11 12 22 22 7 8 9 10 13 19 9 12 8 10 1 3h4l7 19 9 15 2 4 2 5 9 14 10 14 4 5v3l3 1 5 8 2 1v2l4 2 7 11 4 8 4 10 4 5v7l-1 4 4-2 6 1 6 11 3 6v6l-4-1 1 7-1 4-6-2 4 8 2 2-1 3-5-2-1 2-2-1-11 5-3 5-5 5-5 4-5 2-6 3-9 1-6 3h-6l-1 6-8 4-6-1-3-2-8-2h-5v-3h-4l-1 2v-2l-10 2-2-1-1-3-8-4-7-3-1 3h-3l1 4 5-1 1 7v2h6l1 5 1 6-5-5-8-10-11-16-12-19-12-21-11-20-13-28-16-38-12-32-15-47-10-38-7-33-5-30-5-48z"
        fill="#79C958" />
    <path transform="translate(659,644)"
        d="m0 0 6 2 5 3 11 1h5l2 4 2 50 1 93 1 332 1 50v45l-1 17-5-3-3-3v-3l-4-2-26-26-8-10-8-7-6-9-2-4-4-1-12-16-13-17-2-6v-4h-2l-3-9 3-9 2-9 1-4-2-148-1-39-3-19v-9l1-3h3l1 5h3l-1-2v-32l1-90 1-3h2l2-10 3-7 3-2 2 2 10 1 7-2 10-2 3-3 4-9 3-24v-35l1-14 3-9z"
        fill="#006E8F" />
    <path transform="translate(894,975)"
        d="m0 0h8l13 2 4 9 2 7 4 7 1 4 1 106 1 45 1 23 2 8 1 2 9-1h10l3-1 2-5 2-34 1-2 2-135 2-9h2v-3h2l1-6 3-1 6 9h4l1-3 3-2 2-5 4-1v-2h2v-5l1 3 4-1h3l6 16 1-6 2 2 2 9 1 2-1 10h-2l2 13 3 10 3 16 1 6 1 2-4 13-1 22-1 8 1 3-1 4 1 19-3 8-1 5-2 8h-2l-1 7-2 4-2 8-6 10 2-1-2 7h2l-2 11h-2l-1 4-4 5-5 5h-3v2l-6 2-7 8-3 1 1 3h-2l-1 4-3 5-11 9-24 16-16 8-4 1v2l-15 6-19 7-8 3-11 2-18 2h-15l-2-2v-231l2-4 2 1 3 8 3 1 16-4 4-3 4 1 4-2 6 6 2-3 3-10 2-36 1-22 2-7 6-4 5-5 7-3z"
        fill="#006E8F" />
    <path transform="translate(1006,556)"
        d="m0 0 2 2 11 53 12 50 7 26 15 49 12 34 12 29 11 26-1 8 2 30-2 20-2 6-4 7-2 14-1 24-2 16-3 10-12 5-12 2-5 1v-2h-5l-1 2-5-1v-2l-4-2-3-3-7-18-1-1v-6h-2l-2-7-2-4-1-5-2-5-2-1-2-5-1-8-2-6v-3h-3v-2h-9l-5-3-12-2-5 3-3 15-2 14-1 2-1 25-1 67-1 62-1 59-1 15-3 2-12 2-5 4-5-1-3-4-1-11-1-30v-100l5-1 17-1 7-1 1-1 1-7 1-123 1-55 4-24 6-25 11-44 4-20 5-39 5-47 5-37 4-23z"
        fill="#53C176" />
    <path transform="translate(1199,1103)"
        d="m0 0h4l-1 5-11 24-13 26-12 20-16 24-13 18-13 16-9 10-7 8-9 10-13 13-8 7-15 13-17 13-18 12-17 10-19 10-27 11-15 5h-5l-3-4v-2l-13 1-4 1h-10l-33-4-21-4-27-9-20-8-5-3-10-4-16-9-17-12-9-8-9-5v-2l-4-1v-2l-4-1-5-6 6 2 25 12 9 3 31 5 12 1h10l35-3 24-4 17-6 9-3 16-7 3-2h4v-2l14-8 17-12 13-10 11-10h2v-2l8-7 8-8 7-8 10-11 13-17 6-5 8-10 9-5 5-1 13-1 19-4 23-2 9-3 12-1 16-6 12-8 5-6h2l2-4 10-12 2-3h2v-2z"
        fill="#025C7A" />
    <path transform="translate(700,606)"
        d="m0 0h27l24 1 4 2 1 2 1 13v197l-2 266-1 16-3 2-4-7-9-3-4 3-9 4-11-1-5 1-5-5h-4l-4-1-1-3-2 4-1-26-1-301-2-158 5-5z"
        fill="#B4E190" />
    <path transform="translate(1263,826)"
        d="m0 0h2l-1 21-5 46-6 40-9 45-9 35-12 39-11 31-8 20-7 2-3 1v2l-5 5-8 10-3 4h-2l-2 4-7 6-11 6-13 5-12 1-9 3-23 2-19 4-17 1-4 3-7 4-9 11-2 1 2-4 8-12 11-16 3-3 5-10 9-15 2-1 3-8 5-8h2v-5l12-22 10-19 3-9h2v-6l7-15 11-26 15-44 7-26 7-30 6-38 2-4 16-4 19-5 27-9 18-8z"
        fill="#05A1CB" />
    <path transform="translate(808,456)"
        d="m0 0 2 3 5 17 2 18 1 34 1 162v40l-1 30-1 10 3-3 10-31 8-26 10-40 2-9 3-1 4 15 6 25 10 34 14 43 12 34-2 1-1 3-2-1 1 3v7l-6 1v2l-4 1v3l-5 2-5 6-4 2-8-1-1 2 2 1-11-2-1 2-18-1-2-1-6 3v-2l-3 1-3-4-1-5-1 6-1 47-1 105-2 44-3-3-1-8-1-1-3-18-4-17-6-17-4-18-1-5-1-10-4-27v-6l-1-7-2-19-1-29-1-11-1-21v-29l1-6v-48l1-9 1-14v-20l1-12 2-10 1-17 1-8 3-52 2-6 2-16v-14l1-8v-28l2-19 1-21 3-6 2-9 2-2z"
        fill="#88D077" />
    <path transform="translate(897,812)"
        d="m0 0h2l7 18 13 37 4 15 3 21 1 75 1 130 1 30 1 11 3 4 5-1 4-3 12-2 2-1 1-15 1-59h1v75l-2 34-3 5-3 2h-12l-7 1-3-5-1-6-1-23-1-45-1-106-3-7-3-5-2-9-2-6-21-1-10 3-4 3h-2l-2 4-4 2-2 7-2 44-1 16-5 12-4-2-1-4-5 1h-3l-5 2-2 2-9 1-6 2-4-2-2-4v-4h-2l-2 3v-222l1-10 2 4 2 6 2 2 3 1 5-3 9 1 11 2 1-3 9 2 1-3 8 1 4-3 4-4 3-2h3v-3l4-1v-2l6-1-1-10h2z"
        fill="#0B9BBA" />
    <path transform="translate(334,821)"
        d="m0 0 5 1 11 9 10 8 12 11 15 15 7 6 7 8 13 14 7 8 11 12 22 22 7 8 9 10 13 19 9 12 8 10 1 3 3 1-1 7-1 1-2 14-3 6-5 3-10 4-12 2v2h-2v2l-25 10h-4v2h-11l-6 1-11-3-5 1-5-4-9-3h-3v6l-1 3 2 8 5 15 1 6-3-4-14-37-12-36-9-31-9-36-8-43-5-44-2-22z"
        fill="#A0D96C" />
    <path transform="translate(894,975)"
        d="m0 0h8l13 2 4 9 2 7 4 7 1 4 1 106 1 45 1 23 2 8 1 2 9-1h10l3-1 2-5 2-34h1v30l-2 37-3 19 2-2-1 5h-2l-1 3-12 7-7 1-2-3-3-10-2-36-1-23-1-45-3-8-4 1-20 1-6-1-11 1-7 2v3h-2l-2 30-2 35-3 13-5 8-6 5-8 3-9-1-3-3-3 2h-3l-4-8-3-22v-9l-2-7-1-13v-100l2-4 2 1 3 8 3 1 16-4 4-3 4 1 4-2 6 6 2-3 3-10 2-36 1-22 2-7 6-4 5-5 7-3z"
        fill="#0085A9" />
    <path transform="translate(746,237)"
        d="m0 0h2l1 6v17l3 32 2 44 1 44v123l-2 44-1 19-3 8-6 7-10 3-8 2-10 5-15 1-7-1-4-8-11 1-11-3-4-3-5-4v-2h-2l-2-9-2-6-1-13-2-6-2-3 2-17 8-46 2-15h3l13 37 8 21 6 17 2 1 1-14 6-40 13-65 9-42 9-45 10-57 6-30z"
        fill="#8FD88D" />
    <path transform="translate(1006,556)"
        d="m0 0 2 2 11 53 12 50 7 26 13 43-1 2-4-7-2-5-5 6v9l-1 17-2 1 2 7-2 11-3-1-3 1-4-4-1-8h-3l-5 4-2-2-2 1v-4l-4 1-3 12 5 30 3 14 3 7 1 6h2l4 10 1 5h-4l-5 1-2 2-4 1-2-4-2-10-1-1-7 2-6 4-14 2-4-3h-6l-2 6-3 22-1 10-2 135-1 62-1 59-1 15-3 2-12 2-5 4-5-1-3-4-1-11-1-30v-100l5-1 17-1 7-1 1-1 1-7 1-123 1-55 4-24 6-25 11-44 4-20 5-39 5-47 5-37 4-23z"
        fill="#4ABD88" />
    <path transform="translate(759,900)"
        d="m0 0h2l3 12 1 7 1 3 1 21 3 15 2 14 1 1v12l1 5 2 16 1 7-1 9 2 1v10l1 1v7l1 2 1 15 2 18 3 10 2 17 3 9 2 7v6l2 2 1 9 2 5 2 1 2 9 2 5 2 10 2 9 1 1 4 34 1 3 1-99 1-95h1l1 274 1 1h15l12-1-4 2-6 1h-32l-19-3-12-2 6 2-4 1-16-6-22-11 3 4-5-2-14-12-6-5v-2l5 1 2 1v2l5 2 10 7 9 5-1-3h2v-5h2l1-7h2v-8l1-12 2-92 1-175 1-56 1-15h2z"
        fill="#279D58" />
    <path transform="translate(533,711)"
        d="m0 0 2 2 11 35 14 40 19 49v2l-6 2 1 3h-3l-1 7v5l-3 4-1 5-1 1-1 9-3 3v-2h-3l-2 5-4 8-3 22-1 13 1 24-1 14-2 33v29l-2 7-5-4-1 3h-4l-6-9v-2h-3l-1-2-6-2-4-6-5-5-2-5-2 1-1-3v-157l4-26 4-19 7-30 12-50z"
        fill="#53C176" />
    <path transform="translate(652,707)"
        d="m0 0 4 2-1 25-1 23-2 28 1 2v14l1 5 1-7h1l1 18v21l-1 17-3 84-1 20-4 28-7 14-3 4-8 1-6 1-4-2-3 3-9 1-4-4-1-2-1-19v-92l-1-8v-32l1-90 1-3h2l2-10 3-7 3-2 2 2 10 1 7-2 10-2 3-3 4-9z"
        fill="#0085A9" />
    <path transform="translate(1263,826)"
        d="m0 0h2l-1 21-5 46-6 40-9 45-3 13h-1l-2-13-1-4-7 3-4 1-1 3-7-2-9 1-22 5-19 9-4 1h-9v-2l-4 1-8 1-1-7 3-3v-7h2v-3h-2l3-11 9-30 8-35 6-38 2-4 16-4 19-5 27-9 18-8z"
        fill="#2CBDDE" />
    <path transform="translate(700,606)"
        d="m0 0h27l24 1 4 2 1 2 1 13v197l-2 266-1 16-3 2-4-7-9-3-4 3-9 4-11-1-5 1-5-5h-4l-4-1-1-3-2 4-1-26-1-301-2-158 5-5zm-6 3-3 2v70l1 66 1 204 1 16h2v2h2v-2h2l1-2h5v3h2l2 4 2 1h7l-1-2 9-4v3h7l8-4-3-1h-3l-5-3-1-1h-6l-4 4v2h-9v-3l10-2-2-4-12-4 1-4 2-1-1-8 9 1-2-4h-7v-7l3-2-2-6 9-2-1-2h-8l1-3h5v-2l-6-1-1-2 2-1-1-4 6-1 3 1-1 5 4-1 4-4h-2l3-5v-2l4-1 5-14 3-3v-4l4 1 2 5 5 6h2v6h1l1-19v-34l1-126v-103l-3-4z"
        fill="#A0D96C" />
    <path transform="translate(748,243)"
        d="m0 0 2 3 6 30 12 49 2 8-1 8-2-3-1-2-2 2-2-4-4-9-1 3 2 15v13l-1 13-1 23v87l-1 62-1 33-1 22 1 4-1 4 1 5-4-1-32-1h-19l-8 2-2 3 2 158 1 301v49l-1 8h-1l-1-331-1-93-2-50-1-3h-11l-7-2-5-3-7-1-2 9-1 15v37l-3 21-6 12-4 2-12 2-9 1-5-2h-3l-3 7-3 10h-2l-1 65h-1v-104l3-20 7-25 8-25 9-32 8-32 9-43 2-8 4 4 2 11v8l2 6 1 8h2l5 5 7 4 8 2 11-1 4 7v2h13l9-1 12-6 14-3 5-5 4-6 1-4 1-19 2-44v-123l-1-44-2-44-3-35z"
        fill="#53C076" />
    <path transform="translate(1e3 946)"
        d="m0 0 3 4 1 4 4 28 1 3h3v-5l1 2 1-4 1-3 1 1 2-4 5 7 4 8 2 5v6h7l6 3 2-4 2-3h5l1-4 4-1 4-3h4l1-3 4-1v5l2-5 2-10h1l2-16h1v54l-3 34-1 11v9l-1 2h2l-1 11-1 5 4-2v2l4-3 8 1-1 5-6 9-5 9h-2l-2 5-16 23-12 16-6 9h-2l-2 5-10 11-8 10-9 10-11 12-17 17-8 7-11 9-1-3 3-5v-2l8-7 3-4h5v-2l3-1 3-4h2l2-4 3-5h2v-7l2-4h-2l1-6-2 1 2-5 5-8 1-8 3-5 1-4h2v-6l2-4 1-5 2-6-1-21 1-4-1-4 2-18v-9l4-14-1-2-2-13-4-14-2-10v-7h2v-10l-2-5-1-6-2 6-2-4-5-14-1-3 1-2v-17h-2l1-5h-3l1-4h2l1-4z"
        fill="#0E975E" />
    <path transform="translate(993,982)"
        d="m0 0 1 3 4-1h3l6 16 1-6 2 2 2 9 1 2-1 10h-2l2 13 3 10 3 16 1 6 1 2-4 13-1 22-1 8 1 3-1 4 1 19-3 8-1 5-2 8h-2l-1 7-2 4-2 8-6 10 2-1-2 7h2l-2 11h-2l-1 4-4 5-5 5h-3v2l-6 2-7 8-3 1 1 3h-2l-1 4-3 5-11 9-13 9-2-1 24-18 1-10-1-4 1-79 2-135 2-9h2v-3h2l1-6 3-1 6 9h4l1-3 3-2 2-5 4-1v-2h2z"
        fill="#019771" />
    <path transform="translate(1199,1103)"
        d="m0 0h4l-1 5-11 24-13 26-9 15-2-1v-5h2l1-3h3l1-4-3 1-10 10-8 11-1 2h-2l-2 4-6 9-9 8-7 6h-2v2l-10 7-15 7-11 5-22 7-11 2-28 6-7 1h-13l-7-1-10-8-1-3 10-9 5-5 3-5 11-12 12-14 9-12 6-5 8-10 9-5 5-1 13-1 19-4 23-2 9-3 12-1 16-6 12-8 5-6h2l2-4 10-12 2-3h2v-2z"
        fill="#0085A8" />
    <path transform="translate(1171,1160)"
        d="m0 0h3l-1 4-3 1-1 2h-2l1 8-18 27-8 11-4-1-7 6-1 2h-2v3l-5 5-5 4-5 5-5 6-7 6-12 12-13 9-10 7-20 7-16 5-19 3-13 2-27 6-32 3h-40l-4-1-1-6 4-3 3-2 9-5h2l1-3 16-7 3-2h4v-2l14-8 17-12 13-10 11-10h2v-2l8-7 4-3-2 4-11 11-2 1 2 4 8 6 7 1h13l22-4 16-4 12-2 21-7 24-12 6-4 3-1v-2l10-8 8-7 8-12h2l2-5 10-13 4-3h2z"
        fill="#006E8F" />
    <path transform="translate(851,660)"
        d="m0 0h2l4 15 6 25 10 34 14 43 12 34-2 1-1 3-2-1 1 3v7l-6 1v2l-4 1v3l-5 2-5 6-4 2-8-1-1 2 2 1-11-2-1 2-18-1-2-1-6 3v-2l-3 1-3-4-1-5-1 6-1 47h-1v-71l2-42 4-13 12-37 7-25 9-38z"
        fill="#69D2B2" />
    <path transform="translate(897,812)"
        d="m0 0h2l7 18 13 37 4 15-1 3v-2l-4 1-1 9-6 5-11 1-5 2-22 5-3 1-1 9-2 10-1 11-4 6-6-1-4 2-3-3-1-4-7 3-13 1-9-7-1 47h-1v-141l1-10 2 4 2 6 2 2 3 1 5-3 9 1 11 2 1-3 9 2 1-3 8 1 4-3 4-4 3-2h3v-3l4-1v-2l6-1-1-10h2z"
        fill="#29B0C3" />
    <path transform="translate(694,609)"
        d="m0 0h58l3 4v65l-1 22-1 1-1 15-3 10-6 7-9 7-10 5-13 4h-7l-7-5v-5h-2l1 4v23l-2 35h-1l-2-120v-70z"
        fill="#A6E2A2" />
    <path transform="translate(659,644)"
        d="m0 0 6 2 5 3 11 1h5l2 4 2 50 1 93 1 332 1 50v45l-1 17-5-3-3-4 4 2 3 2-1-8-1-241-1-102-1-16-2-2-6-1-8-18-6-1-5 4-4 15h-1v-21l1-14v-23l-1-4-1 5h-1l-1-17v-7l-1-3 2-32 2-39 1-4-4-2v-39l1-14 3-9z"
        fill="#047F96" />
    <path transform="translate(1234,974)"
        d="m0 0h3l2 4 1 6v10l-10 36-9 28h-1v-9h-2v-4l-5-1-3 2v-3l-10 8-6 2h-11l-12 3-8 7-9 5-14 5-5 2h-11l-4-2-5 1v-3l-5 3-4 5-5 7-3 5-3 1-2 6-2 1 1-4 20-39 4-10h2v-6l7-15 11-26 8-23 3-1v3h-2l1 7-3 4v6l10-3 2 1v2l13-2 19-9 22-5 9-1 7 2 1-2z"
        fill="#0DADD4" />
    <path transform="translate(659,1034)"
        d="m0 0 2 1v2l4-2 4 2 5 16 3 11 5 2 4 1 3 4 1 5 1 162-4-2-3-2v-2l-4-2-26-26-8-10-8-7-6-9-2-4-4-1-21-28h3l2 2 2-1 2 1v2l5 2 6 1 1-2h2v-2l9 1 2 1 3-1 4-7 2-10 3-12 1-7 3-51 1-16z"
        fill="#025B7A" />
    <path transform="translate(742,254)"
        d="m0 0h2v8l3 4 2 9 2 36v94l-1 2 2 1-1 2v32l-1 5-3 21-3 1-2 9-7 9-4 7v2l-4 1-1 3-11 6h-7l-4-2-2 2h-3l-2 4-3 7h-1l1-13 6-35 11-55 9-42 9-45 10-57z"
        fill="#A6E2A2" />
    <path transform="translate(334,821)"
        d="m0 0 5 1 11 9 10 8 12 11 15 15 7 6 7 8 13 14 7 8 11 12 22 22 7 8 9 10 12 17-1 2-10-13-5-5-7-6-5-4-10-3-22-1-13-2h-13l-14 1-8 3h-6l-6-4-5-3-2 2-1 11 1 6h-2l-8-37-5-30-5-48z"
        fill="#C9E996" />
    <path transform="translate(999,832)"
        d="m0 0h5v3l2 1 1 9 6 20 4 5v2l4 2 2 5 3 5 3 14 6 5v2l4 1h14 3l15-6 4-10 5-30 3-10 4-3 1 2 1 17-3 22-5 8-2 14-1 24-2 16-3 10-12 5-12 2-5 1v-2h-5l-1 2-5-1v-2l-4-2-3-3-7-18-1-1v-6h-2l-2-7-2-4-1-5-2-5-2-1-2-5-1-8-2-6v-3h-3v-2h-9l-5-3-12-2-5 3-3 15-2 14-2 2v-46l2-16 2-13 2-6 3-1 5 1 5 2 12-2 6-4z"
        fill="#39B476" />
    <path transform="translate(1006,556)"
        d="m0 0 2 2 11 53 12 50 7 26 13 43-1 2-4-7-2-5-5 6v9l-1 17-2 1 2 7-2 11-3-1-3 1-4-4-1-8h-3l-5 4-2-2-2 1v-4h-3l-2-12-2-20v-15h-2l-2 9-6 9-3-1v2h-2v2h-3v2h-2v2l-3 1-3-4 2-12 3-15 5-39 5-47 5-37 4-23z"
        fill="#7CC987" />
    <path transform="translate(757 1e3)"
        d="m0 0h1l3 25 1 12 1 16 1 5 2 30 2 13 1 12 1 2-1 4 2 9v9l1 10 1 2v6l1 5 1 13 2 11v7l3 9 3 12v9h2l2 4 1 18 2 3 3 12 4 9 4 5 2 5 2 4-2 1 2 3-1 5-6 1-13-1-12-2 6 2-4 1-16-6-22-11 3 4-5-2-14-12-6-5v-2l5 1 2 1v2l5 2 10 7 9 5-1-3h2v-5h2l1-7h2v-8l1-12 2-92 1-12z"
        fill="#15855D" />
    <path transform="translate(807,1325)"
        d="m0 0 6 2 5 3 16 6 27 9 28 5 26 3h10l4-1h13l3 5 2 2-22 6-34 7-35 5-40 3h-38l-35-3-29-5-4-4 2-2h12l2 2h4 6l5-4 3-1 5-1 10-4 3 1 9-4 5-2 5-1 9-4 4-1 4-5-1-8-3-1 1-3 4 1 5-1 6-2z"
        fill="#0E975E" />
    <path transform="translate(641,588)"
        d="m0 0h4l5 9 1 19v13l2 19v58l-3 21-6 12-4 2-12 2-9 1-5-2h-3l-3 7-3 10h-2l-1 65h-1v-104l3-20 7-25 8-25 9-32 6-24h2l2-4h3z"
        fill="#3CBAB7" />
    <path transform="translate(960,1089)"
        d="m0 0 3 4 4 4 5 9 4 1v-2l7-1 7-2 5-5 6-3 4 2 8 8 2 6-1 4 1 19-3 8-1 5-2 8h-2l-1 7-2 4-2 8-6 10 2-1-2 7h2l-2 11h-2l-1 4-4 5-5 5h-3v2l-6 2-7 8-3 1 1 3h-2l-1 4-3 5-11 9-13 9-2-1 24-18 1-10-1-4 1-79z"
        fill="#027D72" />
    <path transform="translate(905,1188)"
        d="m0 0 9 2 5 3 3 5 2 6 2 35 2 16 1 6-4 3-16 8-4 1v2l-15 6-19 7-8 3-11 2-18 2h-15l4-3 7-1 11-1 13-3 8-4 2-2 2-13 2-38 2-27 2-6 4-5 5-2 11-1h9z"
        fill="#025B7A" />
    <path transform="translate(700,606)"
        d="m0 0h27l24 1 4 2 1 2 1 13v197l-1 139h-1l-1-28h-1v-90l1-126v-103l-2-3h-58l-2 1v70l1 66 1 220h2v2h2v-2h2l1-3 5 1v3h2l4 4 4-1 8-4h3v3l5 1v3l-11 2v5h-14v2h-3v-2l-3-1 2-4h-5l-2 4v4l-1 1-1 21v45l6-5h4v2l13 2h4l9-3 7-2 4-2 7 1 3 10 3 3 1 12v18l-1 16-3 2-4-7-9-3-4 3-9 4-11-1-5 1-5-5h-4l-4-1-1-3-2 4-1-26-1-301-2-158 5-5z"
        fill="#78C858" />
    <path transform="translate(1217,1056)"
        d="m0 0h3l-1 8-14 37-1 2-7 2-3 1v2l-5 5-8 10-3 4h-2l-2 4-7 6-11 6-13 5-12 1-9 3-23 2-19 4-17 1-4 3-7 4-9 11-2 1 2-4 8-12 11-16 3-3 5-10 9-15 2-1 3-8 4-6 1 2-1 3h2v2l5 1 2 3 10 2 9 3 15-3 22-6 8-3 8-2 13-5 12-10 4-6h2l1-5 7-9 3-6 3-3z"
        fill="#0B9BB9" />
    <path transform="translate(1263,826)"
        d="m0 0h2l-1 21-5 46-2 15h-2v-10l1-6-2-2h-2l-7 2h-12l-13 3h-9l-15 5h-18l-8 6-5 3-2 3 1-8 7-43 2-4 16-4 19-5 27-9 18-8z"
        fill="#61D3DF" />
    <path transform="translate(652,707)"
        d="m0 0 4 2-1 25-1 23-2 28-1 17-2 17h-2l-1 10-2 3h-2l-3 5h-8l-5 1h-11l-6-1v2h-2l-1 4-4 1v-82l1-3h2l2-10 3-7 3-2 2 2 10 1 7-2 10-2 3-3 4-9z"
        fill="#0B9BBA" />
    <path transform="translate(808,456)"
        d="m0 0 2 3 4 13-1 20-4 25-3 44-3 12-4 33-2 13-2 38-3 25-2 38-1 18-1 22v58l1 20 3 30v8l2 16 3 18 3 15 4 25 1 8 3 13 2 16 2 9 1 11 2 11-1 18-3-3-1-8-1-1-3-18-4-17-6-17-4-18-1-5-1-10-4-27v-6l-1-7-2-19-1-29-1-11-1-21v-29l1-6v-48l1-9 1-14v-20l1-12 2-10 1-17 1-8 3-52 2-6 2-16v-14l1-8v-28l2-19 1-21 3-6 2-9 2-2z"
        fill="#77C268" />
    <path transform="translate(1113,1041)"
        d="m0 0 2 3 3-2v4h-2l-2 9-10 19-12 22-1 5h-2l-2 5-4 7-2 5h-2l-2 5-10 17-3 6h-2l-2 5-11 15-9 13-11 14-12 14-16 17-6 6h-2v2l-8 7-16 13-27 18-6 2v2l-10 4-16 7-9 3-14 5-24 4-35 3h-10l-16-2-19-3-13-4v-1l11 1 14 3 9 1h32l31-6 12-5 13-5 11-4h2v-2l17-9 6-3 18-12 13-10 10-8 20-18 17-17 7-8 12-14 9-11 5-7h2l2-5 13-17 16-23 5-8h2l2-5 4-7 5-8 8-13z"
        fill="#77C268" />
    <path transform="translate(959,874)"
        d="m0 0h1v150l-2 107-1 15-3 2-12 2-5 4-5-1-3-4-1-11-1-30v-100l5-1 17-1 7-1 1-1 1-7z"
        fill="#61D3E1" />
    <path transform="translate(710,612)"
        d="m0 0h24l17 1 1 2v20l-1 19-2 15-3 12-2 2-10 2-10 7h-7l-5-5-4-6v-2h-6l-2-4v-5h-2l-2-9-2-29v-17l1-2z"
        fill="#C9E996" />
    <path transform="translate(659,644)"
        d="m0 0 6 2 5 3 11 1h5l2 4 2 50 1 93 1 332 1 50v45l-1 17-5-3-3-4 4 2 3 2-1-8-1-397-1-68-1-18-2-7-3-3-4 2-4-6-3-6v-4l-4-1v-3h-2v-2h-2l-6-9h-4l-1-5v-35l1-14 3-9z"
        fill="#019771" />
    <path transform="translate(1095,915)"
        d="m0 0 3 3v4h3v4l4 2 5 2 4-5v116l-9 17-8 16-5 7-3-1-1 2-1-2-10 2h-3l2-14 1-2h-2v-17l2-14 2-25 2-26 2-7 3 1 4 9 3 5 4 4v-6l5-8 4-4h3l2-9-1-17-3-10-1-4-2-2-5-2-4-3-1-15z"
        fill="#019771" />
    <path transform="translate(660,456)"
        d="m0 0 3 3 10 30 10 26 6 17 2 3v28l-2 19-7 2-9-1-7-3-6-4-2-4h-2l-2-9-2-6-1-13-2-6-2-3 2-17 8-46 2-15z"
        fill="#88D077" />
    <path transform="translate(1e3 946)"
        d="m0 0 3 4 1 4 4 28 1 3h3v-5l1 2 1-4 1-3 1 1 2-4 5 7 4 8 2 5v6h7l6 3 2-4 2-3h5l1-4 4-1 4-3h4l1-3 4-1v5l2-5 2-10h1l2-16h1v29l-2 26-2 8h-2v3l-7 6h-8v2h-2v2l-6 2-4 5h-12l-6-5-4-6-2-5v-3h-2l-1-5-4-2-3-3-3-8-1-6-2 6-2-4-5-14-1-3 1-2v-17h-2l1-5h-3l1-4h2l1-4z"
        fill="#48B45C" />
    <path transform="translate(752,701)"
        d="m0 0h1v25l-1 42-2 11-6 10-7 7-5 2-3 5-6 3-1 1-8-1-3-1-3-5v-2l-3-1-3-8-2-7-3-12-2-31h2v5l4 2 3 2h7l13-4 10-5 7-6h2l2-4 3-3 3-10z"
        fill="#C9E996" />
    <path transform="translate(897,812)"
        d="m0 0h2l7 18 8 22-1 3-1-2-7 10-10 3-18 3-6 2-11-1-12-6-9-2h-6l-5 6-3 2-6 18-1 93h-1v-141l1-10 2 4 2 6 2 2 3 1 5-3 9 1 11 2 1-3 9 2 1-3 8 1 4-3 4-4 3-2h3v-3l4-1v-2l6-1-1-10h2z"
        fill="#3CBAB6" />
    <path transform="translate(752,311)"
        d="m0 0h1l1 25 1 44v123l-2 44-1 19-3 8-6 7-10 3-8 2-10 5-15 1-7-1-4-8 1-20 1-8 2 1v2l4-3 4-2 9-2 9-4h2 4l1-3 7-1 8-4 3-1 3-10 4-16 1-13 1-33v-79l-1-43z"
        fill="#7CC987" />
    <path transform="translate(1079,985)"
        d="m0 0h1v25l-3 34-1 11v9l-1 2h2l-1 11-4 5-3 2h-7l-2-5-3-5-3-3-4-1-6 2-4-1v4l-4-2-4-4h-1l2 8-3-3-5-9-4-4h-2l-2-5-3-16-3-10-1-13h2l1-7 1 2 4 2 3 3v3h2l4 10 2 4 4 2 2 2h12l5-6h5v-2h2v-2l8-1 5-5h2v-3h2l1-8z"
        fill="#289D57" />
    <path transform="translate(1006,556)"
        d="m0 0 2 2 11 53 12 50 7 26 13 43-1 2-4-7-2-5-5 6v9l-1 17-2 1 2 7-2 11-3-1-3 1-4-4-2-11v-13l3-11-2-1 3-16 1-13 1-9v-7l-5-13-5 2v2h-2l-1 2-2-6-2-31-1-7-2-8-1-1-2-17-2-4-3-1-4 1v-9l6-36z"
        fill="#88D077" />
    <path transform="translate(1e3 886)"
        d="m0 0 3 1 5 18 2 1v2h5l6-2 3 6 3 9 1 4h2v2l8 2h4 12l12-5 3-3h2l1-6 3-4v23l-2 16-3 10-12 5-12 2-5 1v-2h-5l-1 2-5-1v-2l-4-2-3-3-7-18-1-1v-6h-2l-2-7-2-4-1-5-2-5-2-1-2-5-1-8-2-6v-3h-3l1-4z"
        fill="#49B55C" />
    <path transform="translate(644,551)"
        d="m0 0 2 4 1 8 3 5 3 21 1 9 3 5 2 1v2l5 1 2 1v2l4 1 7 3h9l2 3v5h2l2 148 1 301v49l-1 8h-1l-1-331-1-93-2-50-1-3h-11l-7-2-5-3-7-1-2 9h-1l-2-13-1-21v-12l-1-11-4-7v-2h-4v2h-3l-2 6h-1l1-10 7-34z"
        fill="#4ABD87" />
    <path transform="translate(894,803)"
        d="m0 0 1 2h2l2 7h-2l-1 3-2-1 1 3v7l-6 1v2l-4 1v3l-5 2-5 6-4 2-8-1-1 2 2 1-11-2-1 2-18-1-2-1-6 3v-2l-3 1-3-4-2-11 7-13 4-3 5-2 1-1h9l3 1h8l14 2 14-2 2 1v-2l5-1v-4z"
        fill="#60D2E0" />
    <path transform="translate(700,606)"
        d="m0 0h27l24 1 4 2 1 2 1 13v197l-1 139h-1l-1-28h-1v-90l1-126v-103l-2-3h-58l-2 1v70l1 66 1 220h2v2h2v-2h2l1-3 5 1v3h2l4 4 4-1 8-4h3v3l5 1v3l-11 2v5h-14v2h-3v-2l-3-1 2-4h-5l-2 4v4l-1 1-1 21v53l2 13-2 6h-1l-1-7-1-301-2-158 5-5z"
        fill="#7BCA8C" />
    <path transform="translate(807,1325)"
        d="m0 0 6 2 5 3 6 2 1 4-3 3-6 2-1 2 3 1-3 6-2 2-7 3-3 4h-2v2l-8 5-8 1-1 5-5 2-1 2 6 1 2 1 30 1v1h-38l-35-3-29-5-4-4 2-2h12l2 2h4 6l5-4 3-1 5-1 10-4 3 1 9-4 5-2 5-1 9-4 4-1 4-5-1-8-3-1 1-3 4 1 5-1 6-2z"
        fill="#2A9E58" />
    <path transform="translate(651,700)"
        d="m0 0 2 4-3 23-6 12-4 2-12 2-9 1-5-2h-3l-3 7-3 10h-2l-1 65h-1v-104l1-4h2l1-6 5-3 2-1h31l6-2z"
        fill="#2CB1C5" />
    <path transform="translate(1014,1111)"
        d="m0 0 7 6v7l1 7 2 1 1 9 4 1 3 11v6h2l1 4-12 14-9 11-16 17-16 16-8 7-11 9-1-3 3-5v-2l8-7 3-4h5v-2l3-1 3-4h2l2-4 3-5h2v-7l2-4h-2l1-6-2 1 2-5 5-8 1-8 3-5 1-4h2v-6l2-4 1-5 2-6-1-21z"
        fill="#15855D" />
    <path transform="translate(957 1e3)"
        d="m0 0h1v15l-1 40-1 4-3 1-13-4-5 2-5 1-2-3v-52l4-1 17-1 7-1z" fill="#A6E2A2" />
    <path transform="translate(1113,1041)"
        d="m0 0 2 3 3-2v4h-2l-2 9-10 19-12 22-1 5h-2l-2 5-4 7-2 5h-2l-2 5-10 17-5 5-9 13-11 15-7 9-10 12-7 8-9 8-3 1-1-5-2-1 6-9 10-11 7-8 10-12 10-13 13-19 14-20 11-17 9-15 3-7z"
        fill="#7CC985" />
    <path transform="translate(352,921)"
        d="m0 0h6l7 3 39 1 13 2 8 1h9l9 3 15 11 9 10-1 2-7-6-5-4-10-3-22-1-13-2h-13l-14 1-8 3h-6l-6-4-5-3-2 2-1 11 1 6h-2l-5-22 1-7 1-3z"
        fill="#B5E291" />
    <path transform="translate(926,978)"
        d="m0 0h1l1 130 1 30 1 11 3 4 5-1 4-3 12-2 2-1 1-15 1-59h1v75l-2 34-3 5-3 2h-12l-7 1-3-5-1-6-1-23-1-45z"
        fill="#2AB0C3" />
    <path transform="translate(1043,719)"
        d="m0 0 3 3 4 9 3 5 12 34 4 10v2h-4l-1 2h-3l-2 6h-4l-3-6-2-1v2l-3-1-1-4h-6l-1-10-1-2-2 1 1-11-1-5 1-1 1-27h2l2-4z"
        fill="#76C269" />
    <path transform="translate(813,545)"
        d="m0 0h2l1 9 1 36 1 68-4 17-2 11-5 4-1-2-1-4-1-2 2-8v-8h-1l-2-16 1-8 2-4h-1l1-24 4-39 1-10z"
        fill="#A0D96C" />
    <path transform="translate(660,456)"
        d="m0 0 3 3 10 30 10 26 1 6-1 5v6h-2l-1 4h-3l-4-10v-2l-9-3-2-3-3 2v-3l-3 1-1-7v-9h-2l-1 2 3-21 3-16 1-10z"
        fill="#9FD96E" />
    <path transform="translate(861,1346)"
        d="m0 0 18 2 10 2 26 3h10l4-1h13l3 5 2 2-22 6-34 7-20 3h-4v-2l-3 1v-5l9-4h2v-6l4-5-3-1 1-3-5 1v-2l-11-2z"
        fill="#16865E" />
    <path transform="translate(641,588)"
        d="m0 0h4l5 9 1 19v24l-2 2h-2l-5 5-11-1-5 2-1-5h3l-1-2v-6h2l-1-6-2-1 4-18 4-16h2l2-4h3z"
        fill="#68D1B3" />
    <path transform="translate(659,644)"
        d="m0 0 6 2 5 3 11 1h5l2 4 2 50v50h-1l-1-48-2-29-3-8h-7l-6-2 1 2-5 1-1 3h-2v5l-3 9-4 22-4-2v-39l1-14 3-9z"
        fill="#0EA579" />
    <path transform="translate(1030,1068)"
        d="m0 0h4l4 6 2 1v-4h6l6-2 5 2 4 8 1 5h7v4l-7 8-6 3-9 4-2 2-7 3 3 3-5 2h-4l-1-2v-7l1-4-2-21 2-4z"
        fill="#019771" />
    <path transform="translate(958,1147)"
        d="m0 0h1v30l-1 24-3 12-4 6-2 1h-15l-4-4-2-12-1-17v-32h1l1 23 2 8 1 2 9-1h10l3-1 2-5z"
        fill="#0B9BBA" />
    <path transform="translate(991,657)"
        d="m0 0 2 1 3 9 2 12 5 16 1 7 1 9-4 10-5 8-3-1v2h-2v2h-3v2h-2v2l-3 1-3-4 2-12 3-15 5-39z"
        fill="#6AD2B2" />
    <path transform="translate(1065,1140)"
        d="m0 0 1 3-2 3h-2l-2 5-11 15-9 13-11 14-12 14-16 17-6 6h-2v2l-8 7-16 13-27 18-6 2v2l-10 4-16 7-9 3-14 5-24 4-35 3h-10l-16-2-19-3-13-4v-1l11 1 14 3 9 1h32l10-2h5l-1 2 13-1 12-2 12-4 7-2 3-1 3-4 1 1 3-3 9 1 5-2 2-2 10-3 4-3 7-3 18-12 10-7 9-7 10-8 4-5 5-4 9-12h2l2-4 8-7 8-9 9-11 10-13 7-10 12-17z"
        fill="#4FBE72" />
    <path transform="translate(748,243)"
        d="m0 0 2 3 6 30 12 49 2 8-1 8-2-3-1-2-2 2-2-4-4-9-1 3 2 15v13l-1 13-1 16h-2l-1-5-1-44-2-44-3-35z"
        fill="#51C075" />
    <path transform="translate(761,523)"
        d="m0 0 4 1 1 8-1 2 2 1 1 21 1 20-1 21-1 4v9l-3 13-3 2-2-3-2-14v-47l1-23z" fill="#299E57" />
    <path transform="translate(1006,556)"
        d="m0 0 2 2 11 53 5 22v3h-2l-1-4-10-3-2-3-2-17-2-4-3-1-4 1v-9l6-36z" fill="#A6E2A2" />
    <path transform="translate(959,874)"
        d="m0 0h1v150l-1 29-2 28-7 1-13-1h-6l-2-1-1-4v-16l2 2 5-1 5-2 14 4h2l1-44 1-22z"
        fill="#6CD2B1" />
    <path transform="translate(756,624)" d="m0 0h1v197l-1 139h-1l-1-28h-1v-90l1-126z" fill="#81CA71" />
    <path transform="translate(595,881)"
        d="m0 0h3l1 5 3 1v136l1 118-3-3-1-8h-2l-3-9 3-9 2-9 1-4-2-148-1-39-3-19v-9z" fill="#028F72" />
    <path transform="translate(552,787)"
        d="m0 0h2l3 5 3 1 1 5h3l11 29-1 3-3-1 1 3-1 2 2 4-3 5-2 3-4 1 1-5-3 1v-2l-5 2h-2l-4 3 1-7 4-5 1-7-2-10v-13h2l1-4-4 2v-3l-4 2-2 2-1-2 2-11z"
        fill="#4AB55D" />
    <path transform="translate(688,754)"
        d="m0 0h2l1 43 1 332 1 50v45l-1 17-5-3-3-4 4 2 3 2-1-8-1-397z" fill="#039073" />
    <path transform="translate(1093,1079)"
        d="m0 0 1 2-12 20-15 22-14 20-12 17-10 12-7 8-11 12-8 10-6 7-8 7-7 6h-2v2l-14 11-10 9-8 6-16 10-6 4-22 12h-2v2l-24 9-9 1 2-2 17-6 13-5h2v-2l17-9 6-3 18-12 13-10 10-8 20-18 17-17 7-8 12-14 9-11 5-7h2l2-5 13-17 16-23 5-8h2l2-5 4-7 5-8z"
        fill="#4FBC6D" />
    <path transform="translate(962,1239)"
        d="m0 0h3l-2 4-5 6-6 4-7 4-1 2h-2l-1 9-16 8-6 2-2 2-5 1-8-1h-2l-1 3h-2l-2 3-4 2-16 4-6 2-18 2-4-1 3-3 18-4 13-3 14-5 7-2v-2l17-9 8-5 18-11 11-8z"
        fill="#87CF76" />
    <path transform="translate(587,1083)"
        d="m0 0h7l2 8 2 4 3-4v8l-2 6-1 7-2 7-1 4 2 3v4h2l1 6-5-5-6-9-9-13-2-6v-10h1l1 6 2-9 2-2 1-4z"
        fill="#299E57" />
    <path transform="translate(1012,629)"
        d="m0 0 4 1 5 2 1 4h3l6 25v2l-4 1-3 9-4 2v2h-2l-1 2-2-6-2-31-1-7z" fill="#8FD88D" />
    <path transform="translate(755,1151)"
        d="m0 0h1v102l-1 31-6-1-11-5 2 3-5-2-14-12-6-5v-2l5 1 2 1v2l5 2 10 7 9 5-1-3h2v-5h2l1-7h2v-8l1-12z"
        fill="#289D57" />
    <path transform="translate(601,888)" d="m0 0 2 4v94l1 17 2 5 8-1-2 5-2 8-5 8-1 3-1 81h-1l-1-94z"
        fill="#057F96" />
    <path transform="translate(1113,1041)"
        d="m0 0 2 3 3-2v4h-2l-2 9-10 19-12 22-1 5h-2l-2 5-4 7-2 5h-2l-2 5-10 17h-2l1-5 9-14 14-24 3-8h-2l-2 5-4 4 2-5 7-12 3-7z"
        fill="#6BD0AC" />
    <path transform="translate(1090,1089)"
        d="m0 0h2l-1 6-12 21-7 11-8 13-9 12-4 5h-2l-1 3h-2l-1 2 1-6 4-7h2l1-4 4-7 2-5 14-20 10-15 4-4z"
        fill="#8AD48B" />
    <path transform="translate(693,951)"
        d="m0 0h1v16h2v2h2v-2h2l1-3 5 1v3h2l4 4 4-1 8-4h3v3l5 1v3l-11 2v5h-14v2h-3v-2l-3-1 2-4h-5l-2 4v4l-1 1-1 21h-1z"
        fill="#88D076" />
    <path transform="translate(928,1138)"
        d="m0 0h1l1 11 3 4 5-1 4-3 12-2 3-1v9l-3 7-6 3-13 2-5-3-2-10z" fill="#2CBDDF" />
    <path transform="translate(1077,801)"
        d="m0 0 2 3 9 21-1 8 1 11-3 5-3 7-2-4-1-7h-2l-1 2 3 1-4 2v-8l2-12-1-16-1-9z" fill="#4BBD88" />
    <path transform="translate(817,1162)"
        d="m0 0h1l1 13 2 9 1 17 3 15 2 5 3 1-6 7-2 1-1 2h-2v24l-1 14h-1z" fill="#047E95" />
    <path transform="translate(1e3 1200)"
        d="m0 0v3l-10 10-3 5-5 4h-2v2l-14 11-10 9-8 6-16 10-6 4-22 12h-2v2l-24 9-9 1 2-2 17-6 13-5h2v-2l17-9 6-3 18-12 13-10 10-8 20-18z"
        fill="#4AB65E" />
    <path transform="translate(816,887)" d="m0 0h1v132l-1 95h-1l-1-50v-49l1-23z" fill="#4BBD81" />
    <path transform="translate(595,881)" d="m0 0h3l1 5 3 1-1 9-1 140h-1l-1-88-1-36-3-19v-9z"
        fill="#10A67A" />
    <path transform="translate(958,1177)"
        d="m0 0h1v44h1v11l-2 7-17 13-5 2-5-5-2-3-1-12 2 4 2 6 1 2 7-1 12-7 1-2h2v-3l-2 1 3-20z"
        fill="#047F96" />
    <path transform="translate(1065,1140)"
        d="m0 0 1 3-2 3h-2l-2 5-11 15-9 13-11 14-12 14-16 17-6 6h-2v2l-8 7-5 3 2-4 6-5 4-5 5-4 9-12h2l2-4 8-7 8-9 9-11 10-13 7-10 12-17z"
        fill="#4EBF78" />
    <path transform="translate(1021,1182)" d="m0 0h2v2l4 1v7l-11 12-7 6-3 1-1-5-2-1 6-9 10-11z"
        fill="#87CF77" />
    <path transform="translate(956 1e3)" d="m0 0 1 3-1 8-4-1-5-2-9 2-3 3-4 9-3 4v-23l4-1 17-1z"
        fill="#C9E996" />
    <path transform="translate(1246,946)" d="m0 0 2 2v10l-7 33h-1l-2-13-1-4-5 1 3-9 6-11 1-2h3z"
        fill="#2DB2C5" />
    <path transform="translate(778,1198)"
        d="m0 0 2 4 1 6 2 7v9h2l2 4 1 18 2 3 3 12v6l-2 2h-3l-2-11-2-7v-7h-1v-5h-2v-16l-1-3 1-2h-2v-7l-1-4z"
        fill="#0E965E" />
    <path transform="translate(902,1278)"
        d="m0 0 2 2h-2l-1 3h-2l-2 3-4 2-16 4-6 2-18 2-4-1 3-3 18-4 13-3 14-5z" fill="#77C780" />
    <path transform="translate(700,606)"
        d="m0 0h27l24 1 4 2 1 2 1 12-1 45h-1l-1-55-2-3h-58l-4 2 2-4z" fill="#7DCA87" />
    <path transform="translate(691,1154)" d="m0 0h1l1 25v45l-1 17-5-3-3-4 4 2 3 2-1-8v-58z"
        fill="#1A8B5C" />
    <path transform="translate(746,237)" d="m0 0h2l1 6v17l3 32v16h-2l-2-33-3-11-2-2v-13z"
        fill="#8AD48B" />
    <path transform="translate(756,289)" d="m0 0h3l8 33v5l-3 3v-2l-4-1-1-10-1-11 1-2-1-3h-2l-1-9z"
        fill="#4BB660" />
    <path transform="translate(1186,1137)"
        d="m0 0 1 3-13 25-5 8-2-1v-5h2l1-3h3l1-4-3 1-5 5-1-3 6-7 8-11 5-7z" fill="#088395" />
    <path transform="translate(1090,1089)" d="m0 0h2l-1 6-12 21-7 11-5 4-1-4 10-16 7-11z"
        fill="#A6E2A3" />
    <path transform="translate(1113,976)" d="m0 0h1v65l-3 3 1-7-2-16 1-6-2-5v-3l-3-1 3-1 2-7z"
        fill="#017D72" />
    <path transform="translate(816,765)" d="m0 0h1v5l2 1h-2v18l-1 19-1 55h-1l-1-32v-39l1-5 1-18z"
        fill="#8FD88D" />
    <path transform="translate(668,638)" d="m0 0 5 2v3l2 1h8l4 2v5h-12l-7-2-5-3-1-4 3-3z"
        fill="#39B477" />
    <path transform="translate(692,939)" d="m0 0h1l1 120 2 13-2 6h-1l-1-7z" fill="#7CC987" />
    <path transform="translate(815,1250)" d="m0 0h1l2 43 1 1h15l12-1-4 2-6 1h-24l-5-2 6-6 1-4z"
        fill="#15865D" />
    <path transform="translate(715,1260)"
        d="m0 0 5 1 2 1v2l5 2 10 7 14 9-2 1-11-5 2 3-5-2-14-12-6-5z" fill="#188B5D" />
    <path transform="translate(1093,1079)"
        d="m0 0 1 2-12 20-15 22-14 20-4 2 2-4 14-20 11-16 1-2h2l2-5 4-7 5-8z" fill="#4ABA71" />
    <path transform="translate(653,552)" d="m0 0 5 5 4 9 2 6 1 6-4-1-3-3v-2h-2l-2-9-2-6z"
        fill="#7CC987" />
    <path transform="translate(770,1290)" d="m0 0 11 1 14 3 9 1 21 1-3 3-4 1-16-2-19-3-13-4z"
        fill="#49B55D" />
    <path transform="translate(599,1103)" d="m0 0h1l1 6 1 27 1 5-3-3-1-8h-2l-3-9 3-9z"
        fill="#15855D" />
    <path transform="translate(1061,783)" d="m0 0h5l2 4v17l-2 1v-3h-2l-5-10v-6z" fill="#49B55C" />
    <path transform="translate(1091,1091)"
        d="m0 0h2l-2 10h-2l-2 5-4 7-2 5h-2l-2 5-10 17h-2l1-5 9-14 14-24z" fill="#74CB94" />
    <path transform="translate(922,1264)" d="m0 0h2v2l-16 9-4 1v2l-24 9-9 1 2-2 17-6 13-5h2v-2z"
        fill="#44B269" />
    <path transform="translate(564,1173)" d="m0 0h3l2 4-3 12-6 3-4-1 1-6 4-3 2-6h2z" fill="#49B55B" />
    <path transform="translate(787,1246)" d="m0 0 3 3 3 12v6l-2 2h-3l-2-11-2-7 1-4z" fill="#0F945D" />
    <path transform="translate(846,1293)" d="m0 0h5l-1 2 2 2-2 1-22 2h-9l2-3z" fill="#4CBD76" />
    <path transform="translate(956 1e3)" d="m0 0 1 2-1 3-7 1-19 1v-4l2-1 17-1z" fill="#FDFDFD" />
    <path transform="translate(817,1092)" d="m0 0h1l2 37-2 29h-1z" fill="#057F96" />
    <path transform="translate(1e3 975)" d="m0 0h2l5 15v11l-2 1-5-16-2-5z" fill="#299E57" />
    <path transform="translate(959,1239)" d="m0 0 3 1-10 9-18 11-6 4-4 2 1-3 21-14z" fill="#4DBE79" />
    <path transform="translate(746,237)" d="m0 0h2l1 6v27h-1l-1-9-3-9v-8z" fill="#81CD89" />
    <path transform="translate(504,997)" d="m0 0 2 3 6 16 9 15-2 2-11-19-4-8-1-8z" fill="#7AC46B" />
    <path transform="translate(959,1010)" d="m0 0h1v14l-1 28h-2v-33l1-1z" fill="#61CDB4" />
    <path transform="translate(884,1290)" d="m0 0h8l-2 2-21 4-6 1h-11l2-2 21-3z" fill="#45B364" />
    <path transform="translate(571,829)" d="m0 0h5l3 10-6 2 1 3h-5l2-5v-3l-1-3z" fill="#57C278" />
    <path transform="translate(1008,994)" d="m0 0 2 2 2 9 1 2-1 10h-2l-3-11v-7z" fill="#0FA67A" />
    <path transform="translate(466,1204)" d="m0 0h2l1 7v2h6l1 5 1 6-5-5-8-10-1-3z" fill="#7BCA5D" />
    <path transform="translate(921,1272)" d="m0 0 6 1v2l-8 3-2 2-5 1-6-2 3-2 6-1v-2z" fill="#77C268" />
    <path transform="translate(767,325)" d="m0 0 2 4 1 8-2 4-2-5-2 2-2-4-3-7 6 1z" fill="#56C177" />
    <path transform="translate(1051,1143)" d="m0 0v3l-11 15-8 7v-3l6-7 1-2h2l2-5 5-6z"
        fill="#4EBB69" />
    <path transform="translate(1065,1140)" d="m0 0 1 3-2 3h-2l-2 5-11 15-6 9-1-3 10-14 12-17z"
        fill="#49BC8A" />
    <path transform="translate(750,254)" d="m0 0 2 3 4 19v5l-3-2-3-15z" fill="#51B864" />
    <path transform="translate(1041,1173)" d="m0 0 1 3-13 17-4 4-1-3 13-15z" fill="#4EBF7D" />
    <path transform="translate(1091,1091)" d="m0 0h2l-2 10h-2l-2 5-4 7-2 5-1-3 1-5 10-17z"
        fill="#6ECB9C" />
    <path transform="translate(953,1259)" d="m0 0 1 3-14 9-4 1v2h-3l2-4 8-4z" fill="#4DBA6A" />
    <path transform="translate(1011,1192)" d="m0 0v3l-11 12-5 5-4 3 2-4 9-9 3-5z" fill="#52C074" />
    <path transform="translate(894,1278)" d="m0 0 3 1-7 4-10 4-9 1 2-2 17-6z" fill="#2F9F60" />
    <path transform="translate(997,605)" d="m0 0h2v16h-2v5l-2 1 1-15z" fill="#74D5B0" />
    <path transform="translate(387,1058)" d="m0 0h2l3 9 4 10-1 4-8-19z" fill="#A5DB77" />
    <path transform="translate(846,1293)" d="m0 0h5l-1 2 2 2-2 1h-10l2-4z" fill="#4EBE76" />
    <path transform="translate(1e3 1220)" d="m0 0v3l-12 12-6 5-2-1 7-7h2v-2l8-7z" fill="#018C87" />
    <path transform="translate(934,1270)" d="m0 0m-1 1m-1 1v3l-12 6h-2l2-4z" fill="#50BD6E" />
    <path transform="translate(724,967)" d="m0 0h3v3l2 1-4 2-9-1 4-3z" fill="#A0D96C" />
    <path transform="translate(715,1260)" d="m0 0 5 1 2 1v2l5 2 1 2-9-2-4-4z" fill="#299E57" />
    <path transform="translate(1145,975)" d="m0 0h2v3h-2l1 7-2 3h-3l2-9z" fill="#19B2D4" />
    <path transform="translate(617,657)" d="m0 0h1v5l3-1 3 2-1 2h-2l-3 1h-2l-1 3-1-3z"
        fill="#66D3D5" />
    <path transform="translate(940,1253)" d="m0 0h2l-1 3-12 7-5 3 1-3z" fill="#4CBD75" />
    <path transform="translate(1018,1182)" d="m0 0 2 1-2 4-10 9v-3l8-8z" fill="#4DBA68" />
    <path transform="translate(693,1059)" d="m0 0h1l2 13-2 6h-1l-1-13z" fill="#88D077" />
    <path transform="translate(799,1282)" d="m0 0h3l1 4 2 2-2 2h-3v-2h-2z" fill="#0F965D" />
    <path transform="translate(922,1264)" d="m0 0h2v2l-10 6h-5l4-3z" fill="#36A561" />
    <path transform="translate(965,1251)" d="m0 0h2l-1 3-10 7h-2l2-4z" fill="#4EBD71" />
    <path transform="translate(693,1078)" d="m0 0 3 3-2 16h-1z" fill="#77C268" />
    <path transform="translate(813,476)" d="m0 0h2l1 12h-2l-1 2-1-5z" fill="#8FD37E" />
    <path transform="translate(760,1287)" d="m0 0 8 1 5 3 6 2-4 1-14-5z" fill="#0E956A" />
    <path transform="translate(1173,1162)" d="m0 0 1 3-5 8-2-1v-5h2l1-3h3z" fill="#0C8795" />
    <path transform="translate(1099,1068)" d="m0 0 2 2-8 15-1-2 4-9z" fill="#66C48A" />
    <path transform="translate(973,1228)" d="m0 0 3 1-13 10-3-1 9-7z" fill="#4CB967" />
    <path transform="translate(1077,1103)" d="m0 0h2l-2 6-6 8-1-3z" fill="#4CBB6E" />
    <path transform="translate(1257,893)" d="m0 0h1l-1 15h-2v-10z" fill="#64D3DA" />
    <path transform="translate(979,734)" d="m0 0 2 1-1 5h2l1 3-6 3z" fill="#6ED2AF" />
    <path transform="translate(752,270)" d="m0 0h2l2 6v5l-3-2z" fill="#4DB762" />
    <path transform="translate(1050,1150)" d="m0 0 1 2-3 8h-2l-1 2 1-6z" fill="#89D17A" />
    <path transform="translate(472,958)" d="m0 0 5 5 5 7-1 2-9-11z" fill="#BCE494" />
    <path transform="translate(1046,720)" d="m0 0h2l3 12-4-4z" fill="#8AD180" />
</svg>